<svg width="36" height="36" viewBox="0 0 36 36" xmlns="http://www.w3.org/2000/svg">
<path fill-rule="evenodd" clip-rule="evenodd" d="M3 25V11H6V25H3ZM1 10C1 9.44772 1.44772 9 2 9H7C7.55228 9 8 9.44772 8 10V26C8 26.5523 7.55228 27 7 27H2C1.44772 27 1 26.5523 1 26V10ZM12 25V11H15V25H12ZM10 10C10 9.44772 10.4477 9 11 9H16C16.5523 9 17 9.44772 17 10V26C17 26.5523 16.5523 27 16 27H11C10.4477 27 10 26.5523 10 26V10ZM30 11V25H33V11H30ZM29 9C28.4477 9 28 9.44772 28 10V26C28 26.5523 28.4477 27 29 27H34C34.5523 27 35 26.5523 35 26V10C35 9.44772 34.5523 9 34 9H29ZM21 25V11H24V25H21ZM19 10C19 9.44772 19.4477 9 20 9H25C25.5523 9 26 9.44772 26 10V26C26 26.5523 25.5523 27 25 27H20C19.4477 27 19 26.5523 19 26V10Z"/>
</svg>
