<svg width="36" height="36" viewBox="0 0 36 36" xmlns="http://www.w3.org/2000/svg">
  <path fill-rule="evenodd" clip-rule="evenodd" d="m 19.996073,11 v 14 h 3 V 11 Z m -1,-2 c -0.55228,0 -1,0.44772 -1,1 v 16 c 0,0.5523 0.44772,1 1,1 h 5 c 0.55228,0 1,-0.4477 1,-1 V 10 c 0,-0.55228 -0.44772,-1 -1,-1 z M 29,11 v 14 h 3 V 11 Z M 28,9 c -0.5523,0 -1,0.44772 -1,1 v 16 c 0,0.5523 0.4477,1 1,1 h 5 c 0.5523,0 1,-0.4477 1,-1 V 10 C 34,9.44772 33.5523,9 33,9 Z M 3.9976872,25 V 11 h 9.9999998 v 14 z m -2,-15 c 0,-0.55228 0.4477,-1 1,-1 H 14.997687 c 0.5523,0 1,0.44772 1,1 v 16 c 0,0.5523 -0.4477,1 -1,1 H 2.9976872 c -0.5523,0 -1,-0.4477 -1,-1 z" />
</svg>
