<svg width="36" height="36" viewBox="0 0 36 36" xmlns="http://www.w3.org/2000/svg">
<path fill-rule="evenodd" clip-rule="evenodd" d="M4 11V25H7V11H4ZM3 9C2.44772 9 2 9.44772 2 10V26C2 26.5523 2.44772 27 3 27H8C8.55228 27 9 26.5523 9 26V10C9 9.44772 8.55228 9 8 9H3ZM29 11V25H32V11H29ZM28 9C27.4477 9 27 9.44772 27 10V26C27 26.5523 27.4477 27 28 27H33C33.5523 27 34 26.5523 34 26V10C34 9.44772 33.5523 9 33 9H28ZM13 25V11H23V25H13ZM11 10C11 9.44772 11.4477 9 12 9H24C24.5523 9 25 9.44772 25 10V26C25 26.5523 24.5523 27 24 27H12C11.4477 27 11 26.5523 11 26V10Z" />
</svg>
