<svg width="36" height="36" viewBox="0 0 36 36" xmlns="http://www.w3.org/2000/svg">
  <path fill-rule="evenodd" clip-rule="evenodd" d="m 16.001614,11 v 14 h -3 V 11 Z m 1,-2 c 0.55228,0 1,0.44772 1,1 v 16 c 0,0.5523 -0.44772,1 -1,1 h -5 c -0.55228,0 -1,-0.4477 -1,-1 V 10 c 0,-0.55228 0.44772,-1 1,-1 z M 6.9976872,11 v 14 h -3 V 11 Z m 1,-2 c 0.5523,0 1,0.44772 1,1 v 16 c 0,0.5523 -0.4477,1 -1,1 h -5 c -0.5523,0 -1,-0.4477 -1,-1 V 10 c 0,-0.55228 0.4477,-1 1,-1 z M 32,25 V 11 H 22 V 25 Z M 34,10 C 34,9.44772 33.5523,9 33,9 H 21 c -0.5523,0 -1,0.44772 -1,1 v 16 c 0,0.5523 0.4477,1 1,1 h 12 c 0.5523,0 1,-0.4477 1,-1 z" />
</svg>
