<svg width="36" height="36" viewBox="0 0 36 36" xmlns="http://www.w3.org/2000/svg">
<path fill-rule="evenodd" clip-rule="evenodd" d="M4 24V12H9V24H4ZM2 11C2 10.4477 2.44772 10 3 10H10C10.5523 10 11 10.4477 11 11V25C11 25.5523 10.5523 26 10 26H3C2.44772 26 2 25.5523 2 25V11ZM15 12V24H20V12H15ZM14 10C13.4477 10 13 10.4477 13 11V25C13 25.5523 13.4477 26 14 26H21C21.5523 26 22 25.5523 22 25V11C22 10.4477 21.5523 10 21 10H14ZM26 12V24H31V12H26ZM25 10C24.4477 10 24 10.4477 24 11V25C24 25.5523 24.4477 26 25 26H32C32.5523 26 33 25.5523 33 25V11C33 10.4477 32.5523 10 32 10H25Z" />
</svg>
